<svg xmlns="http://www.w3.org/2000/svg" xmlns:xlink="http://www.w3.org/1999/xlink" xml:space="preserve" width="634.689" height="495.944" viewBox="0 0 167.928 131.219"><defs><radialGradient xlink:href="#a" id="m" cx="48.231" cy="18.138" r="9.5" fx="48.231" fy="18.138" gradientTransform="rotate(179.329 61.82 29.768)scale(1.56063 2.29111)" gradientUnits="userSpaceOnUse"/><radialGradient xlink:href="#b" id="n" cx="171.487" cy="511.223" r="81.903" fx="171.487" fy="511.223" gradientTransform="rotate(-30.306 382.421 566.553)scale(1.3355 .78241)" gradientUnits="userSpaceOnUse"/><radialGradient xlink:href="#c" id="p" cx="171.487" cy="511.223" r="81.903" fx="171.487" fy="511.223" gradientTransform="rotate(-30.306 382.421 566.553)scale(1.3355 .78241)" gradientUnits="userSpaceOnUse"/><radialGradient xlink:href="#d" id="r" cx="181.694" cy="461.841" r="81.903" fx="181.694" fy="461.841" gradientTransform="rotate(-30.306 382.421 566.553)scale(1.3355 .78241)" gradientUnits="userSpaceOnUse"/><radialGradient xlink:href="#f" id="u" cx="171.487" cy="511.223" r="81.903" fx="171.487" fy="511.223" gradientTransform="rotate(-30.306 382.421 566.553)scale(1.3355 .78241)" gradientUnits="userSpaceOnUse"/><radialGradient xlink:href="#j" id="t" cx="0" cy="-3.234" r="8" fx="0" fy="-3.234" gradientTransform="rotate(179.719 -.002 -5.114)scale(1.12243 1.85033)" gradientUnits="userSpaceOnUse"/><radialGradient xlink:href="#k" id="w" cx="-.206" cy="-4.579" r="8" fx="-.206" fy="-4.579" gradientTransform="matrix(-1 0 0 -1.72018 -.412 -13.027)" gradientUnits="userSpaceOnUse"/><radialGradient xlink:href="#l" id="x" cx="171.487" cy="511.223" r="81.903" fx="171.487" fy="511.223" gradientTransform="rotate(-30.306 382.421 566.553)scale(1.3355 .78241)" gradientUnits="userSpaceOnUse"/><radialGradient xlink:href="#i" id="z" cx="159.354" cy="492.632" r="81.903" fx="159.354" fy="492.632" gradientTransform="matrix(1.08948 -.71514 .44645 .65627 -244.933 290.918)" gradientUnits="userSpaceOnUse"/><linearGradient id="f"><stop offset="0" style="stop-color:#fff;stop-opacity:.4351145"/><stop offset="1" style="stop-color:#000;stop-opacity:0"/></linearGradient><linearGradient id="a"><stop offset="0" style="stop-color:#000;stop-opacity:1"/><stop offset="1" style="stop-color:#000;stop-opacity:.65648854"/></linearGradient><linearGradient id="b"><stop offset="0" style="stop-color:#fff;stop-opacity:.53435117"/><stop offset="1" style="stop-color:#000;stop-opacity:0"/></linearGradient><linearGradient id="c"><stop offset="0" style="stop-color:#fff;stop-opacity:.51908398"/><stop offset="1" style="stop-color:#000;stop-opacity:0"/></linearGradient><linearGradient id="d"><stop offset="0" style="stop-color:#fff;stop-opacity:.70229006"/><stop offset="1" style="stop-color:#000;stop-opacity:0"/></linearGradient><linearGradient id="k"><stop offset="0" style="stop-color:#df0000;stop-opacity:1"/><stop offset="1" style="stop-color:#df0000;stop-opacity:.67175573"/></linearGradient><linearGradient id="l"><stop offset="0" style="stop-color:#fff;stop-opacity:.31297711"/><stop offset="1" style="stop-color:#000;stop-opacity:0"/></linearGradient><linearGradient id="i"><stop offset="0" style="stop-color:#fff;stop-opacity:.29007635"/><stop offset="1" style="stop-color:#000;stop-opacity:0"/></linearGradient><linearGradient id="j"><stop offset="0" style="stop-color:#df0000;stop-opacity:1"/><stop offset="1" style="stop-color:#df0000;stop-opacity:.64122134"/></linearGradient><filter id="o" width="1.279" height="1.325" x="-.139" y="-.162" color-interpolation-filters="sRGB"><feGaussianBlur stdDeviation="9.511"/></filter><filter id="q" width="1.279" height="1.325" x="-.139" y="-.162" color-interpolation-filters="sRGB"><feGaussianBlur stdDeviation="9.511"/></filter><filter id="s" width="1.279" height="1.325" x="-.139" y="-.162" color-interpolation-filters="sRGB"><feGaussianBlur stdDeviation="9.511"/></filter><filter id="v" width="1.279" height="1.325" x="-.139" y="-.162" color-interpolation-filters="sRGB"><feGaussianBlur stdDeviation="9.511"/></filter><filter id="y" width="1.279" height="1.325" x="-.139" y="-.162" color-interpolation-filters="sRGB"><feGaussianBlur stdDeviation="9.511"/></filter><filter id="A" width="1.279" height="1.325" x="-.139" y="-.162" color-interpolation-filters="sRGB"><feGaussianBlur stdDeviation="9.511"/></filter><filter id="C" width="1.12" height="1.312" x="-.06" y="-.156" style="color-interpolation-filters:sRGB"><feGaussianBlur stdDeviation="3.519"/></filter></defs><g style="clip-rule:nonzero;fill-rule:nonzero;stroke:#000;stroke-miterlimit:4"><path d="M166.837 235.548c0 3.777-3.087 6.869-6.871 6.869H7.11c-3.775 0-6.861-3.092-6.861-6.87V7.12C.25 3.343 3.336.25 7.11.25h152.856c3.784 0 6.87 3.093 6.87 6.87z" style="fill:#fff;stroke-width:.5" transform="rotate(-30 63.76 -24.847)scale(.35278)"/></g><text xml:space="preserve" x="-176.975" y="246.753" style="font-style:normal;font-weight:400;line-height:0%;font-family:&quot;Bitstream Vera Sans&quot;;letter-spacing:0;word-spacing:0;fill:#000;fill-opacity:1;stroke:none" transform="rotate(-30 -112.941 -107.1)scale(.35278)"><tspan x="-176.975" y="246.753" style="font-style:normal;font-variant:normal;font-weight:400;font-stretch:normal;font-size:32px;line-height:1.25;font-family:Arial;-inkscape-font-specification:Arial">A</tspan></text><path d="M50.291 22.698s2.375-1.9 2.375-4.534c0-1.542-1.369-4.102-4.534-4.102s-4.534 2.561-4.534 4.102c0 2.634 2.375 4.534 2.375 4.534-2.638-2.055-7.34-.652-7.34 3.455 0 2.056 1.68 4.318 4.317 4.318 3.165 0 4.534-3.455 4.534-3.455s.402 3.938-1.943 6.046h5.182c-2.345-2.107-1.943-6.046-1.943-6.046s1.37 3.455 4.534 3.455c2.64 0 4.318-2.263 4.318-4.318 0-4.107-4.703-5.51-7.34-3.455" style="fill:url(#m);fill-opacity:1" transform="rotate(-30 85.146 113.198)scale(2.1068)"/><path d="M117.301 604.266s-8.067-94.95 22.857-122.857c34.761-31.369 140-11.429 140-11.429s-71.54 24.838-100 48.572c-27.21 22.692-62.857 85.714-62.857 85.714" style="fill:url(#n);fill-opacity:1;stroke:none;filter:url(#o)" transform="rotate(-30 59.314 -24.482)scale(.08066 .08779)"/><path d="M117.301 604.266s-8.067-94.95 22.857-122.857c34.761-31.369 140-11.429 140-11.429s-71.54 24.838-100 48.572c-27.21 22.692-62.857 85.714-62.857 85.714" style="fill:url(#p);fill-opacity:1;stroke:none;filter:url(#q)" transform="rotate(-30 23.712 -37.429)scale(.08066 .08779)"/><path d="M117.301 604.266s-8.067-94.95 22.857-122.857c34.761-31.369 140-11.429 140-11.429s-71.54 24.838-100 48.572c-27.21 22.692-62.857 85.714-62.857 85.714" style="fill:url(#r);fill-opacity:1;stroke:none;filter:url(#s)" transform="rotate(1.612 517.853 2176.88)scale(.09752 .1168)"/><path d="M28.356 122.025v734.281h667.156v-734.28Zm334.28 97.625c91.69 0 131.376 74.172 131.376 118.844 0 76.307-68.813 131.344-68.813 131.344 76.423-59.533 212.657-18.886 212.657 100.093 0 59.534-48.643 125.094-125.094 125.094-91.69 0-131.344-100.094-131.344-100.094s-11.653 114.117 56.281 175.157H287.574c67.935-61.069 56.313-175.157 56.313-175.157s-39.654 100.094-131.344 100.094c-76.423 0-125.094-65.531-125.094-125.094 0-118.979 136.234-159.626 212.657-100.093 0 0-68.813-55.037-68.813-131.344 0-44.643 39.654-118.844 131.344-118.844" style="fill:#fffeff;fill-opacity:1;fill-rule:nonzero;stroke:none" transform="rotate(-30 73.065 -33.599)scale(.07272)"/><path d="M50.291 22.698s2.375-1.9 2.375-4.534c0-1.542-1.369-4.102-4.534-4.102s-4.534 2.561-4.534 4.102c0 2.634 2.375 4.534 2.375 4.534-2.638-2.055-7.34-.652-7.34 3.455 0 2.056 1.68 4.318 4.317 4.318 3.165 0 4.534-3.455 4.534-3.455s.402 3.938-1.943 6.046h5.182c-2.345-2.107-1.943-6.046-1.943-6.046s1.37 3.455 4.534 3.455c2.64 0 4.318-2.263 4.318-4.318 0-4.107-4.703-5.51-7.34-3.455" style="fill:#000" transform="rotate(-30 79.884 8.95)scale(.5241)"/><text xml:space="preserve" x="23.222" y="-433.671" style="font-style:normal;font-weight:400;line-height:0%;font-family:&quot;Bitstream Vera Sans&quot;;letter-spacing:0;word-spacing:0;fill:#000;fill-opacity:1;stroke:none" transform="rotate(150 28.697 -30.262)scale(.35278)"><tspan x="23.222" y="-433.671" style="font-style:normal;font-variant:normal;font-weight:400;font-stretch:normal;font-size:32px;line-height:1.25;font-family:Arial;-inkscape-font-specification:Arial">A</tspan></text><path d="M50.291 22.698s2.375-1.9 2.375-4.534c0-1.542-1.369-4.102-4.534-4.102s-4.534 2.561-4.534 4.102c0 2.634 2.375 4.534 2.375 4.534-2.638-2.055-7.34-.652-7.34 3.455 0 2.056 1.68 4.318 4.317 4.318 3.165 0 4.534-3.455 4.534-3.455s.402 3.938-1.943 6.046h5.182c-2.345-2.107-1.943-6.046-1.943-6.046s1.37 3.455 4.534 3.455c2.64 0 4.318-2.263 4.318-4.318 0-4.107-4.703-5.51-7.34-3.455" style="fill:#000" transform="rotate(150 56.662 47.633)scale(.5241)"/><g style="clip-rule:nonzero;fill-rule:nonzero;stroke:#000;stroke-miterlimit:4"><path d="M166.837 235.548c0 3.777-3.087 6.869-6.871 6.869H7.11c-3.775 0-6.861-3.092-6.861-6.87V7.12C.25 3.343 3.336.25 7.11.25h152.856c3.784 0 6.87 3.093 6.87 6.87z" style="fill:#fff;stroke-width:.5" transform="rotate(-15 91.067 -153.185)scale(.35278)"/></g><text xml:space="preserve" x="-87.52" y="256.714" style="font-style:normal;font-weight:400;line-height:0%;font-family:&quot;Bitstream Vera Sans&quot;;letter-spacing:0;word-spacing:0;fill:#df0000;fill-opacity:1;stroke:none" transform="rotate(-15 -231.886 -238.473)scale(.35278)"><tspan x="-87.52" y="256.714" style="font-style:normal;font-variant:normal;font-weight:400;font-stretch:normal;font-size:32px;line-height:1.25;font-family:Arial;-inkscape-font-specification:Arial;fill:#df0000;fill-opacity:1">A</tspan></text><text xml:space="preserve" x="-67.322" y="-442.216" style="font-style:normal;font-weight:400;line-height:0%;font-family:&quot;Bitstream Vera Sans&quot;;letter-spacing:0;word-spacing:0;fill:#df0000;fill-opacity:1;stroke:none" transform="rotate(165 31.396 -30.528)scale(.35278)"><tspan x="-67.322" y="-442.216" style="font-style:normal;font-variant:normal;font-weight:400;font-stretch:normal;font-size:32px;line-height:1.25;font-family:Arial;-inkscape-font-specification:Arial;fill:#df0000;fill-opacity:1">A</tspan></text><path d="M3.243-4.725C1.126-7.59 0-10.5 0-10.5s-1.126 2.91-3.243 5.775C-5.361-1.862-8 0-8 0s2.639 1.861 4.757 4.726C-1.126 7.59 0 10.5 0 10.5s1.126-2.91 3.243-5.774C5.361 1.861 8 0 8 0S5.361-1.862 3.243-4.725" style="fill:url(#t);fill-opacity:1" transform="rotate(-15 233.161 -284.047)scale(2.09951)"/><path d="M117.301 604.266s-8.067-94.95 22.857-122.857c34.761-31.369 140-11.429 140-11.429s-71.54 24.838-100 48.572c-27.21 22.692-62.857 85.714-62.857 85.714" style="fill:url(#u);fill-opacity:1;stroke:none;filter:url(#v)" transform="rotate(155.814 45.21 53.101)scale(.08902 .0922)"/><path d="M3.243-4.725C1.126-7.59 0-10.5 0-10.5s-1.126 2.91-3.243 5.775C-5.361-1.862-8 0-8 0s2.639 1.861 4.757 4.726C-1.126 7.59 0 10.5 0 10.5s1.126-2.91 3.243-5.774C5.361 1.861 8 0 8 0S5.361-1.862 3.243-4.725" style="fill:#df0000" transform="rotate(-15 147.342 -183.722)scale(.52102)"/><path d="M3.243-4.725C1.126-7.59 0-10.5 0-10.5s-1.126 2.91-3.243 5.775C-5.361-1.862-8 0-8 0s2.639 1.861 4.757 4.726C-1.126 7.59 0 10.5 0 10.5s1.126-2.91 3.243-5.774C5.361 1.861 8 0 8 0S5.361-1.862 3.243-4.725" style="fill:#df0000" transform="rotate(-15 330.456 -390.002)scale(.52102)"/><g style="clip-rule:nonzero;fill-rule:nonzero;stroke:#000;stroke-miterlimit:4"><path d="M166.837 235.548c0 3.777-3.087 6.869-6.871 6.869H7.11c-3.775 0-6.861-3.092-6.861-6.87V7.12C.25 3.343 3.336.25 7.11.25h152.856c3.784 0 6.87 3.093 6.87 6.87z" style="fill:#fff;stroke-width:.5" transform="translate(66.187 13.744)scale(.35278)"/></g><text xml:space="preserve" x="10.479" y="260.132" style="font-style:normal;font-weight:400;line-height:0%;font-family:&quot;Bitstream Vera Sans&quot;;letter-spacing:0;word-spacing:0;fill:#df0000;fill-opacity:1;stroke:none" transform="translate(64.694 -68.142)scale(.35278)"><tspan x="10.479" y="260.132" style="font-style:normal;font-variant:normal;font-weight:400;font-stretch:normal;font-size:32px;line-height:1.25;font-family:Arial;-inkscape-font-specification:Arial;fill:#df0000;fill-opacity:1">A</tspan></text><g style="stroke:none"><path d="M3.676-9C.433-9 0-5.523 0-5.523S-.433-9-3.676-9C-5.946-9-8-7.441-8-4.5-8-.614-1.42 3.294 0 9 1.352 3.299 8-.614 8-4.5 8-7.441 5.946-9 3.676-9" style="fill:url(#w);fill-opacity:1;stroke:none" transform="matrix(2.40792 0 0 2.25358 95.518 56.88)"/></g><path d="M117.301 604.266s-8.067-94.95 22.857-122.857c34.761-31.369 140-11.429 140-11.429s-71.54 24.838-100 48.572c-27.21 22.692-62.857 85.714-62.857 85.714" style="fill:url(#x);fill-opacity:1;stroke:none;filter:url(#y)" transform="matrix(.10308 0 0 .10675 64.658 -11.6)"/><path d="M117.301 604.266s-8.067-94.95 22.857-122.857c34.761-31.369 140-11.429 140-11.429s-63.092 37.07-91.552 60.805c-27.21 22.692-71.305 73.481-71.305 73.481" style="fill:url(#z);fill-opacity:1;stroke:none;filter:url(#A)" transform="matrix(.0801 .02346 -.02287 .09735 99.636 -11.69)"/><path d="M3.676-9C.433-9 0-5.523 0-5.523S-.433-9-3.676-9C-5.946-9-8-7.441-8-4.5-8-.614-1.42 3.294 0 9 1.352 3.299 8-.614 8-4.5 8-7.441 5.946-9 3.676-9" style="fill:#df0000;fill-opacity:1" transform="matrix(.59066 0 0 .5528 72.247 30.108)"/><text xml:space="preserve" x="-165.321" y="-445.634" style="font-style:normal;font-weight:400;line-height:0%;font-family:&quot;Bitstream Vera Sans&quot;;letter-spacing:0;word-spacing:0;fill:#df0000;fill-opacity:1;stroke:none" transform="translate(64.694 -68.142)scale(-.35278)"><tspan x="-165.321" y="-445.634" style="font-style:normal;font-variant:normal;font-weight:400;font-stretch:normal;font-size:32px;line-height:1.25;font-family:Arial;-inkscape-font-specification:Arial;fill:#df0000;fill-opacity:1">A</tspan></text><path d="M3.676-9C.433-9 0-5.523 0-5.523S-.433-9-3.676-9C-5.946-9-8-7.441-8-4.5-8-.614-1.42 3.294 0 9 1.352 3.299 8-.614 8-4.5 8-7.441 5.946-9 3.676-9" style="fill:#df0000;fill-opacity:1" transform="matrix(-.59066 0 0 -.5528 119.16 82.586)"/><g style="clip-rule:nonzero;fill-rule:nonzero;stroke:#000;stroke-miterlimit:4"><path d="M166.837 235.548c0 3.777-3.087 6.869-6.871 6.869H7.11c-3.775 0-6.861-3.092-6.861-6.87V7.12C.25 3.343 3.336.25 7.11.25h152.856c3.784 0 6.87 3.093 6.87 6.87z" style="fill:#fff;stroke-width:.5" transform="rotate(15 -13.262 348.205)scale(.35278)"/></g><text xml:space="preserve" x="117.626" y="245.935" style="font-style:normal;font-weight:400;line-height:0%;font-family:&quot;Bitstream Vera Sans&quot;;letter-spacing:0;word-spacing:0;fill:#000;fill-opacity:1;stroke:none" transform="rotate(15 298.357 237.416)scale(.35278)"><tspan x="117.626" y="245.935" style="font-style:normal;font-variant:normal;font-weight:400;font-stretch:normal;font-size:32px;line-height:1.25;font-family:Arial;-inkscape-font-specification:Arial">A</tspan></text><path d="M7.989 3.103C7.747-.954.242-8.59 0-10.5-.242-8.591-7.747-.955-7.989 3.103c-.169 2.868 1.695 4.057 3.39 4.057 1.835-.022 3.35-2.8 3.873-3.341.242.716-1.603 6.682-2.179 6.682h5.811c-.576 0-2.421-5.966-2.179-6.682.457.496 1.797 3.258 3.874 3.341 1.694-.001 3.557-1.189 3.388-4.057" style="fill:#000" transform="rotate(15 -76.628 362.937)scale(.5322 .4866)"/><text xml:space="preserve" x="-272.288" y="-433.019" style="font-style:normal;font-weight:400;line-height:0%;font-family:&quot;Bitstream Vera Sans&quot;;letter-spacing:0;word-spacing:0;fill:#000;fill-opacity:1;stroke:none" transform="rotate(195 31.256 -39.28)scale(.35278)"><tspan x="-272.288" y="-433.019" style="font-style:normal;font-variant:normal;font-weight:400;font-stretch:normal;font-size:32px;line-height:1.25;font-family:Arial;-inkscape-font-specification:Arial">A</tspan></text><path d="M7.989 3.103C7.747-.954.242-8.59 0-10.5-.242-8.591-7.747-.955-7.989 3.103c-.169 2.868 1.695 4.057 3.39 4.057 1.835-.022 3.35-2.8 3.873-3.341.242.716-1.603 6.682-2.179 6.682h5.811c-.576 0-2.421-5.966-2.179-6.682.457.496 1.797 3.258 3.874 3.341 1.694-.001 3.557-1.189 3.388-4.057" style="fill:#000" transform="rotate(195 67.741 40.167)scale(.5322 .4866)"/><path d="M80.475 437.167c-7.558-2.03-13.789-3.77-13.847-3.866s.715-.517 1.717-.934c3.647-1.518 7.292-4.7 12.08-10.545 3.29-4.017 4.447-5.673 5.943-8.512 2.395-4.545 3.247-7.865 2.455-9.574l-.379-.819-2.884 1.762c-3.207 1.958-7.062 3.324-11.12 3.94-4.446.673-7.17.54-11.557-.566-3.461-.872-4.179-1.16-6.437-2.587-5.7-3.602-9.55-9.387-10.847-16.292-.78-4.16-.685-6.323.487-11.037.948-3.814 1.228-4.53 2.977-7.605 2.731-4.803 7.205-10.453 11.211-14.16 4.87-4.505 15.443-12.455 26.335-19.8 8.962-6.043 12.663-8.813 19.294-14.443 7.055-5.99 10.018-8.974 11.84-11.924.73-1.18 1.395-2.126 1.48-2.103.086.022.243 1.43.35 3.128.421 6.754 3.536 16.679 8.834 28.151.944 2.043 3.719 7.884 6.167 12.98 8.02 16.692 11.11 24.841 13.139 34.653 1.572 7.598 1.516 13.116-.188 18.843-2.179 7.32-5.936 11.895-12.79 15.576-2.822 1.516-6.819 2.598-9.778 2.646-.915.015-3.3-.29-5.3-.676-5.985-1.16-10.057-3.484-15.205-8.682-2.414-2.438-4.926-6.004-5.428-7.707-.406-1.376-.98-1.449-1.885-.24-1.522 2.034-2.218 4.046-2.396 6.931-.555 8.997 2.05 21.409 5.659 26.952l1.458 2.24-3.822-1.02c-2.102-.56-10.005-2.68-17.563-4.71zm13.757-1.15c-1.17-1.59-3.166-7.052-3.905-10.687-.768-3.78-.62-6.367.496-8.652l1.208-2.473c.241-.494.241-1.364 0-2.426l-.377-1.657-1.295 1.403-1.295 1.403.164 1.656c.24 2.443-.823 5.613-2.597 7.74-2.242 2.687-8.894 8.476-10.35 9.008-1.704.622-1.058.76 1.964.419 2.178-.246 2.832-.17 6.319.729 4.006 1.033 7.513 2.528 8.881 3.786 1.272 1.17 1.726 1.026.787-.25m-5.196-3.532c-1.738-.898-6.422-2.028-8.279-1.997-.822.013-.818.005.396-.8 1.671-1.107 2.893-2.427 5.446-5.881 1.963-2.657 2.176-2.853 2.264-2.08.053.468.24 2.428.413 4.354.305 3.372.663 4.843 1.625 6.68.505.964.547.97-1.865-.276m36.349-12.766c4.766-.49 9.809-3.27 13.131-7.24 2.091-2.498 3.024-4.093 4.353-7.447 1.864-4.702 2.211-9.276 1.228-16.162-1.299-9.102-4.401-17.13-11.793-30.522-11.237-20.358-13.747-26.428-15.02-36.334-.219-1.695-.342-3.702-.275-4.46s.028-1.397-.087-1.421-.878 1.03-1.698 2.344c-4.927 7.9-13.06 14.606-30.66 25.282-12.269 7.442-14.236 8.818-19.796 13.846-7.262 6.567-11.341 12.326-13.387 18.898-3.225 10.364-.135 20.79 7.558 25.5 4.704 2.88 12.047 3.534 18.475 1.645 5.165-1.517 8.024-3.145 10.635-6.056.84-.935 1.593-1.748 1.675-1.807.08-.058.528.502.992 1.245.814 1.3 1.85 5.035 2.056 7.414l.099 1.145 1.671-2.162c1.11-1.437 2.396-2.634 3.826-3.565l2.153-1.402.517 2.505c1.18 5.714 6.906 12.588 13.61 16.336 2.865 1.603 7.82 2.719 10.737 2.418m-8.159-2.443c-2.534-1.012-4.043-1.954-6.42-4.008-6.248-5.401-8.999-10.28-8.5-15.08.087-.843.013-1.57-.166-1.616-1.058-.266-5.49 2.745-7.34 4.987-.42.508-.885.894-1.034.856-.148-.036-.42-.74-.606-1.56-.536-2.379-1.858-5.605-2.762-6.74-.912-1.146-.907-1.147-1.928.503-1.092 1.766-2.896 3.766-4.442 4.922-1.578 1.18-7.51 3.394-10.377 3.874-6.446 1.079-13.217-.707-17.074-4.501-3.302-3.25-5.123-8.12-5.156-13.798-.048-8.024 2.979-14.756 9.864-21.939 6.34-6.616 9.909-9.403 19.984-15.613 16.702-10.295 25.52-17.028 31.454-24.018 2.465-2.904 2.77-2.64.898.78-3.196 5.845-17.46 18.254-38.175 33.21-5.582 4.03-12.14 10.398-14.654 14.231-3.455 5.266-4.977 9.844-4.969 14.944.011 7.251 2.733 12.164 8.02 14.479 7.67 3.358 16.374-.52 24.197-10.777l1.889-2.477.938 2.768c1.019 3.003 3.503 7.557 4.222 7.738.552.14 5.761-3.123 7.633-4.779.757-.67 1.454-1.203 1.55-1.183.095.019.228.608.295 1.308.068.7.387 2.516.71 4.033 2.29 10.752 7.443 17.105 15 18.493 3.36.617 6.114-.145 9.223-2.552 3.368-2.608 5.367-5.355 6.905-9.491 1.708-4.593 1.912-10.11.63-16.997-.72-3.861-3.69-12.134-6.335-17.636-5.169-10.758-12.937-31.5-14.596-38.972-.43-1.938-.574-5.972-.29-8.15.23-1.76.483-1.32.754 1.307.442 4.283 2.548 11.075 5.29 17.06 1.719 3.75 3.694 7.596 8.724 16.98 3.241 6.046 5.224 10.138 7.36 15.184 3.654 8.629 5.693 19.315 5.012 26.257-.665 6.777-5.434 14.202-11.1 17.281-2.21 1.201-6.197 2.083-8.948 1.978-2.342-.089-3.127-.267-5.68-1.286m-1.811-4.216c-2.378-1.664-4.194-3.672-5.44-6.015-2.214-4.164-3.946-10.636-4.186-15.65-.126-2.625-.304-3.05-.883-2.112-1.193 1.926-8.829 8.414-9.655 8.203-.587-.149-2.249-4.133-3.628-8.69-.714-2.362-1.329-4.345-1.365-4.406s-.653.941-1.37 2.227c-3.274 5.876-10.036 12.172-14.924 13.896-6.9 2.434-15.063-1.64-16.164-8.066-.293-1.712-.035-5.07.38-4.965.144.035.224.209.18.384-.175.692 1.013 3.334 2.004 4.456 3.887 4.402 8.583 5.113 14.98 2.267 5-2.224 10.817-8.708 9.87-11.002-.245-.594-.299-.527-.47.59-.254 1.662-1.244 2.549-3.385 3.032-.926.21-1.884.592-2.129.852-.41.432-.502.382-1.125-.612-.374-.595-1.01-1.165-1.412-1.267-.72-.181-.726-.171-.312.606.501.944-.04 3.442-1.103 5.092-.856 1.33-3.92 3.255-5.768 3.626-3.1.622-7.212-1.444-8.79-4.418-2.26-4.26.52-9.65 5.599-10.857 2.439-.579 5.347.665 6.497 2.78.54.991.534 1.033-.25 1.979-1.094 1.322-1.609 1.288-2.476-.162-.679-1.138-.873-1.26-2.336-1.484-2.77-.421-5.092 1.584-5.03 4.345.036 1.582 1.744 4.192 3.175 4.852 3.755 1.733 8.598-1.626 8.715-6.044.036-1.376.207-1.808 1.477-3.73 2.786-4.216 3.84-11.605 2.174-15.244-.33-.719-.34-.712-.254.182.093.968-.305 1.832-.787 1.71-.153-.038-.24-.217-.195-.397s-.433-.732-1.061-1.228c-1.433-1.13-2.78-1.097-3.834.095-.69.78-.695.819-.092.732 1.432-.205 1.888-.092 2.918.725 1.997 1.584 2.622 4.7 1.68 8.377-.57 2.224-1.75 4.695-2.192 4.584-.09-.023-.585-.59-1.1-1.262-1.239-1.616-2.134-2.206-4.079-2.688-3.246-.803-7.029.749-9.733 3.993-.876 1.05-1.685 2.263-1.8 2.695-.198.748-.218.751-.419.07-.291-.99 1.043-5.83 2.306-8.367 3.177-6.38 11.184-14.72 19.195-19.991l2.156-1.419-.559 2.981c-.438 2.338-.47 3.364-.15 4.755.497 2.162 2.147 4.77 3.602 5.693 1.589 1.009 4.424 1.418 5.827.842 1.462-.6 2.834-2.28 2.835-3.47 0-.624.103-.815.352-.656.603.385 1.13 2.03 1.094 3.412-.037 1.41-1.122 4.277-1.975 5.213-.852.937-2.976 1.636-4.968 1.635-3.038 0-3.705.171-4.527 1.168-.96 1.164-1.145 3.026-.37 3.731.522.475.53.462.218-.359-.416-1.09-.368-1.24.577-1.804.672-.401 1.201-.36 3.82.293 3.842.959 5.422.753 7.05-.92 1.78-1.83 2.472-3.314 2.63-5.647.248-3.681-.822-7.066-2.77-8.76-1.623-1.412-3.117-1.833-4.428-1.249-1.187.53-1.451 1.118-.383.852 1.087-.271 2.05.614 2.271 2.086.156 1.038.084 1.334-.515 2.134-1.98 2.646-5.53 1.997-7.895-1.445-1.511-2.199-1.892-4.255-1.248-6.748.896-3.472 3.404-5.872 6.853-6.557 1.373-.273 4.085.376 5.482 1.313 3.9 2.612 6.374 9.111 6.081 15.972-.109 2.542-1.533 13.26-2.016 15.17-.196.776-.7 1.685-1.215 2.19-1.117 1.097-1.33 1.943-.663 2.636.288.3.445.863.347 1.25-.105.419.013.753.29.823.278.07.54-.169.645-.587.098-.387.502-.808.899-.936.875-.282 1.129-1.133.78-2.619-.213-.908-.086-1.653.688-4.035 1.238-3.814 3.818-9.852 5.35-12.524 3.244-5.656 8.068-9.899 12.08-10.626 3.27-.593 6.904 1.36 8.496 4.564 1.012 2.037 1.069 3.407.25 6.079-.576 1.88-.919 2.458-2.224 3.755-2.083 2.07-4.46 2.81-6.627 2.064-1.258-.434-1.629-.747-2.254-1.906-.59-1.093-.681-1.653-.43-2.65.42-1.669 1.895-2.633 3.199-2.094 1.081.448 1.226.102.354-.846-1.04-1.13-3.399-1.338-5.56-.49-1.92.754-4.259 2.834-5.328 4.739-.942 1.679-1.463 5.08-1.07 6.983.542 2.62 1.382 3.34 5.253 4.51 2.905.878 3.367 1.104 3.83 1.88.459.77.453.952-.048 1.433-.474.455-.495.545-.124.518.651-.049 1.402-1.325 1.403-2.386 0-1.583-1.069-2.931-3.081-3.88-1.003-.473-2.118-1.242-2.478-1.71-1.932-2.502-1.236-7.75 1.287-9.697 1.15-.888 1.478-.724.958.478-.553 1.281-.197 2.837.993 4.33.713.897 1.32 1.275 2.792 1.742 2.37.751 3.929.536 6.276-.866 2.527-1.51 3.656-3.076 4.475-6.211.368-1.41.77-2.539.894-2.51.386.095 3.182 6.746 4.83 11.49 3.493 10.057 4.132 17.526 2.025 23.655-.949 2.758-1.568 3.339-1.365 1.28.265-2.7-1.496-7.209-3.639-9.315-.93-.914-1.605-1.267-3.27-1.71-2.259-.6-3.73-.448-5.585.576l-1.024.567-.233-.838c-.148-.535.027-1.85.486-3.64.837-3.264 2.01-5.006 4.33-6.433 1.84-1.132 3.116-1.107 4.09.08l.732.892.226-.896c.504-2-2.044-3.472-4.363-2.52l-1.177.484.376-.907c.487-1.177-.1-1.124-1.545.139-1.678 1.468-2.7 3.245-3.69 6.419-.753 2.414-.895 3.352-.824 5.425.047 1.38-.016 2.892-.14 3.362s-.458 1.654-.74 2.63c-.852 2.945-.138 5.518 2.012 7.255 3.165 2.555 7.462 1.294 8.41-2.468.445-1.765.04-3.069-1.325-4.277-1.011-.894-3.024-1.2-4.107-.625-.725.386-.775.358-1.478-.819-.717-1.2-.716-1.227.023-1.907 1.558-1.434 5.683-1.334 7.372.178.402.36 1.113 1.322 1.58 2.138 2.264 3.95 1.371 8.242-2.23 10.717-2.9 1.992-5.344 1.966-8.544-.093-2.307-1.485-3.541-3.148-3.996-5.386-.642-3.154-.381-4.154 1.7-6.517.51-.579-1.331-.444-2.365.173-.915.547-1.235.603-1.355.239-.087-.263-.134-.578-.106-.7s-.522-.845-1.222-1.605c-1.791-1.945-2.153-4.133-.926-5.599.483-.577.478-.581-.137-.115-1.4 1.062-1.6 3.347-.648 7.457 1.627 7.032 5.724 12.167 11.04 13.84 2.153.676 2.616.714 4.334.351 1.976-.417 4.178-1.73 5.69-3.393l.857-.944-.264 1.093c-.568 2.35-4.28 5.933-7.141 6.893-1.673.561-2.045.557-4.816-.055-2.532-.56-3.276-.854-4.742-1.88zm5.497-7.348c-.846-.397-1.871-2.125-2.086-3.515-.17-1.104.294-3.665.648-3.576.674.17 1.677 1.706 1.909 2.921.243 1.274.397 1.471 1.331 1.707 1.27.32 2.139-.297 1.806-1.285-.117-.348-.513-.697-.88-.775-.736-.157-.746-.692-.02-1.125.502-.3 1.874-.055 2.617.467.614.433.975 2.107.694 3.222-.27 1.074-1.547 2.141-2.955 2.472-.984.23-1.758.1-3.064-.513m-55.895-15.89c-1.106-1.693-1.023-3.23.24-4.442 1.007-.966 2.302-1.088 3.276-.309.818.654.711 1.571-.128 1.11-.416-.23-.732-.118-1.149.402-.483.605-.51.84-.167 1.486.225.422.727.847 1.116.945.798.201 2.337-.832 2.56-1.72.081-.319.34-.532.576-.472s.657-.058.935-.262c.841-.614 1.07-.297.736 1.025-.716 2.842-2.754 4.296-5.407 3.857-1.597-.265-1.777-.377-2.588-1.62m35.698-14.9c.178-.73.21-1.729.074-2.22-.35-1.252-.171-1.747.972-2.687l1-.822.42 1.327c.378 1.194.354 1.413-.235 2.192-.36.477-.885 1.517-1.167 2.312-.679 1.915-1.535 1.833-1.064-.103m.421-8.095c.176-3.34-.925-7.35-2.96-10.772-2.147-3.613-4.196-5.48-6.21-5.659-1.074-.095-1.245-.196-1.119-.658.236-.861 1.217-1.752 2.377-2.157 2.104-.735 3.29.093 5.354 3.736 3.013 5.319 4.447 11.857 3.459 15.776-.54 2.141-1.02 2-.9-.265zm3.036 1.012c.96-3.778 5.097-8.712 9.84-11.736 4.673-2.98 7.27-2.947 8.633.109.243.545.366 1.292.274 1.66-.154.61-.332.629-1.958.208-2.5-.646-4.638-.12-8.248 2.03-3.487 2.075-6.249 4.859-7.558 7.619-.49 1.03-1.004 1.844-1.144 1.81s-.067-.8.161-1.7m.018-5.345c.688-2.73.932-6.006 1.058-14.185.12-7.889 1.437-11.825 5.367-16.049.872-.937 1.909-2.267 2.303-2.955l.718-1.25.07 1.343c.039.738.299 2.538.578 3.998 1.087 5.686.487 9.236-2.467 14.59-2.577 4.67-4.926 9.413-6.35 12.818-1.364 3.263-1.828 3.878-1.277 1.69m-2.028-7.065c-.293-.834-1.09-2.713-1.772-4.175-1.516-3.251-1.975-5.202-1.708-7.262.355-2.735 1.91-4.089 3.683-3.204 1.712.855 1.963 3.308 1.056 10.298-.374 2.88-.63 5.39-.57 5.58s.049.33-.024.312-.372-.715-.665-1.55m7.03 2.325c.203-.496.879-2.264 1.501-3.93 2.008-5.373 3.824-8.147 5.849-8.937 1.356-.53 1.864-.4 2.401.613.333.627.31 1.266-.105 2.873-.679 2.627-1.39 3.47-5.382 6.375-1.732 1.26-3.484 2.656-3.892 3.1l-.743.807zm-12.399-11.275c-.738-.795-1.34-.964-2.806-.788-.52.063-.467-.064.405-.973.552-.575 1.622-1.474 2.379-1.997l1.375-.951-.357 1.414c-.196.779-.298 2.045-.227 2.815s.103 1.383.071 1.361c-.032-.021-.41-.418-.84-.881m21.923 5.027c.298-.636.805-1.826 1.127-2.644l.585-1.486.5 1.428c.275.786.621 1.944.768 2.574l.268 1.144-1.029-.259c-.566-.143-1.42-.11-1.896.07l-.866.33zm-14.622-12.115c-.32-.439-.846-.865-1.17-.946-.324-.082-.574-.209-.555-.282.06-.239 3.452-3.247 3.776-3.35.175-.055.078.42-.218 1.069-.293.642-.642 1.892-.777 2.777s-.297 1.592-.36 1.57c-.064-.022-.377-.399-.696-.838m12.067 1.037c.369-1.349.7-2.445.737-2.437.126.029 1.649 4.355 1.6 4.546-.025.105-.17.065-.32-.088-.149-.154-.815-.12-1.48.075l-1.208.356z" style="fill:#000" transform="translate(71.614 -69.13)scale(.35278)"/><text xml:space="preserve" style="font-style:normal;font-variant:normal;font-weight:400;font-stretch:normal;font-size:42.3333px;font-family:&quot;Roboto Slab&quot;;-inkscape-font-specification:&quot;Roboto Slab&quot;;text-align:center;letter-spacing:-3.3655px;writing-mode:lr-tb;direction:ltr;text-anchor:middle;fill:#43d054;fill-opacity:1;stroke:none;stroke-width:6.76021;stroke-linecap:square;stroke-dasharray:none" transform="translate(4.412)"><textPath xlink:href="#B" startOffset="50%"><tspan style="font-style:normal;font-variant:normal;font-weight:400;font-stretch:normal;font-size:42.3333px;font-family:&quot;Roboto Slab&quot;;-inkscape-font-specification:&quot;Roboto Slab&quot;;letter-spacing:-3.3655px;fill:#43d054;fill-opacity:1;stroke:none;stroke-width:6.76021;stroke-dasharray:none">POKER</tspan></textPath></text><text xml:space="preserve" style="font-style:normal;font-variant:normal;font-weight:400;font-stretch:normal;font-size:42.3333px;font-family:&quot;Roboto Slab&quot;;-inkscape-font-specification:&quot;Roboto Slab&quot;;text-align:center;letter-spacing:-3.3655px;writing-mode:lr-tb;direction:ltr;text-anchor:middle;mix-blend-mode:multiply;fill:#43d054;fill-opacity:1;stroke:#43d054;stroke-width:1.05833;stroke-linecap:square;stroke-dasharray:none;stroke-opacity:1;filter:url(#C)" transform="translate(4.412)"><textPath xlink:href="#B" startOffset="50%" transform="rotate(90 78.727 150.602)"><tspan style="font-style:normal;font-variant:normal;font-weight:400;font-stretch:normal;font-size:42.3333px;font-family:&quot;Roboto Slab&quot;;-inkscape-font-specification:&quot;Roboto Slab&quot;;letter-spacing:-3.3655px;fill:#43d054;fill-opacity:1;stroke:#43d054;stroke-width:1.05833;stroke-dasharray:none;stroke-opacity:1">POKER</tspan></textPath></text><circle id="B" cx="163.155" cy="-78.178" r="67.991" style="fill:none;stroke:none;stroke-width:1.24596;stroke-linecap:square;stroke-opacity:1" transform="rotate(90)"/></svg>